<?xml version="1.0" standalone="no"?>
<!DOCTYPE svg PUBLIC "-//W3C//DTD SVG 20010904//EN"
 "http://www.w3.org/TR/2001/REC-SVG-20010904/DTD/svg10.dtd">
<svg version="1.0" xmlns="http://www.w3.org/2000/svg"
 width="1572.000000pt" height="1572.000000pt" viewBox="0 0 1572.000000 1572.000000"
 preserveAspectRatio="xMidYMid meet">
<metadata>
Created by potrace 1.14, written by Peter Selinger 2001-2017
</metadata>
<g transform="translate(0.000000,1572.000000) scale(0.100000,-0.100000)"
fill="#000000" stroke="none">
<path d="M7695 14170 c-93 -55 -177 -104 -185 -110 -8 -5 -28 -17 -45 -26 -28
-16 -342 -215 -494 -314 -442 -287 -1054 -745 -1476 -1103 -77 -66 -162 -138
-189 -161 -54 -44 -158 -136 -166 -145 -3 -3 -27 -26 -55 -50 -168 -149 -329
-299 -547 -511 l-118 -115 132 -68 c256 -132 505 -257 684 -346 100 -49 210
-105 245 -124 35 -19 120 -65 189 -102 69 -38 154 -85 189 -107 34 -21 65 -38
66 -38 7 0 259 -153 357 -216 54 -35 101 -64 104 -64 3 0 10 -4 17 -10 7 -5
89 -60 182 -122 94 -62 172 -115 175 -118 3 -3 25 -19 50 -35 73 -49 447 -321
460 -335 3 -3 21 -17 40 -30 19 -13 37 -27 40 -30 3 -3 46 -37 95 -75 50 -38
124 -96 165 -130 41 -34 115 -94 163 -133 l89 -72 101 78 c261 201 646 486
777 574 14 9 84 58 155 107 414 287 970 627 1475 900 166 90 781 391 799 391
4 0 36 14 71 31 l63 30 -40 42 c-22 23 -78 82 -124 131 -302 321 -877 843
-1168 1059 -31 23 -58 44 -61 47 -35 37 -490 371 -760 557 -143 98 -455 304
-620 408 -197 124 -366 235 -493 322 -83 58 -156 107 -162 109 -5 2 -86 -41
-180 -96z"/>
<path d="M3301 10412 c-6 -11 -17 -26 -24 -34 -33 -34 -297 -372 -423 -543
-262 -354 -545 -776 -736 -1095 -37 -63 -73 -122 -78 -130 -21 -34 -140 -238
-165 -284 -16 -28 -41 -72 -56 -98 -16 -27 -29 -51 -29 -54 0 -3 -27 -53 -61
-112 -60 -107 -339 -659 -394 -782 -16 -36 -48 -105 -71 -155 -23 -49 -40 -93
-38 -96 3 -6 309 -159 754 -378 598 -294 892 -472 1330 -809 149 -115 360
-303 544 -487 119 -119 406 -418 445 -463 82 -97 226 -242 230 -230 5 17 189
465 206 503 8 17 50 111 93 210 228 516 457 955 692 1325 40 63 80 128 89 143
66 116 327 495 466 678 27 36 61 80 75 99 37 49 147 189 185 235 17 22 108
135 200 250 93 116 171 212 175 215 22 17 62 83 54 88 -5 4 -77 61 -158 127
-409 330 -899 682 -1296 930 -69 43 -152 95 -185 116 -256 161 -979 540 -1210
634 -144 59 -547 207 -577 212 -19 4 -29 0 -37 -15z"/>
<path d="M12195 10353 c-99 -40 -198 -82 -220 -92 -22 -10 -105 -47 -185 -82
-80 -35 -146 -67 -148 -71 -2 -5 -9 -8 -16 -8 -7 0 -118 -53 -247 -118 -207
-105 -291 -150 -484 -257 -191 -106 -619 -374 -825 -515 -196 -135 -364 -253
-370 -260 -3 -4 -59 -46 -125 -95 -102 -76 -349 -269 -365 -285 -3 -3 -44 -37
-92 -75 -49 -39 -88 -73 -88 -77 0 -14 391 -544 474 -643 113 -134 346 -454
490 -674 182 -279 205 -315 249 -390 23 -40 51 -89 63 -110 12 -20 50 -85 86
-146 35 -60 89 -157 120 -215 30 -58 70 -132 88 -165 18 -33 82 -159 142 -280
59 -121 113 -227 117 -236 8 -14 200 -441 250 -554 9 -22 46 -111 82 -197 l64
-158 35 38 c20 20 89 98 155 172 142 161 233 257 460 485 208 209 250 248 460
424 11 9 74 57 140 107 350 265 540 389 870 568 133 72 478 246 489 246 2 0
44 18 93 41 144 66 244 109 443 189 58 24 106 44 108 45 2 2 -5 23 -16 47 -11
23 -50 111 -87 193 -137 308 -411 846 -564 1108 -28 49 -51 90 -51 92 0 2 -36
63 -81 137 -45 73 -89 147 -99 164 -49 84 -317 500 -369 573 -7 10 -53 75
-101 145 -72 103 -151 212 -262 361 -28 37 -231 303 -241 315 -7 8 -68 86
-135 173 -68 86 -124 156 -125 156 -1 -1 -83 -35 -182 -76z"/>
<path d="M7743 7073 c-71 -87 -138 -170 -148 -184 -242 -322 -273 -365 -415
-578 -292 -439 -570 -952 -774 -1431 -32 -74 -64 -148 -71 -165 -86 -195 -258
-689 -335 -959 -31 -112 -116 -435 -124 -478 -2 -13 -18 -86 -34 -163 -17 -77
-33 -153 -36 -170 -3 -16 -8 -43 -11 -60 -7 -39 -26 -148 -40 -235 -2 -14 -6
-45 -10 -70 -3 -25 -8 -56 -10 -70 -6 -36 -13 -88 -20 -145 -3 -27 -7 -63 -9
-80 -2 -16 -7 -61 -11 -100 -4 -38 -9 -86 -11 -105 -2 -19 -7 -75 -10 -125 -3
-49 -7 -110 -9 -135 -2 -25 -7 -120 -11 -212 l-6 -168 2232 0 2232 0 -6 192
c-4 106 -8 216 -11 243 -2 28 -6 84 -9 125 -18 254 -66 634 -107 845 -5 28
-20 109 -34 180 -14 72 -34 171 -45 220 -12 50 -25 108 -30 130 -5 22 -14 60
-20 85 -7 25 -13 52 -15 60 -52 209 -168 588 -246 803 -16 45 -37 102 -45 126
-28 78 -161 403 -198 484 -20 42 -36 79 -36 82 0 3 -47 101 -104 218 -93 190
-133 266 -246 472 -61 110 -176 298 -294 480 -65 99 -176 270 -247 380 -119
183 -180 267 -256 351 -15 17 -84 94 -152 172 -68 78 -127 142 -132 142 -4 0
-65 -71 -136 -157z"/>
<path d="M14895 5543 c-33 -13 -78 -32 -100 -42 -22 -10 -65 -29 -95 -42 -114
-49 -420 -208 -545 -284 -222 -133 -489 -323 -650 -459 -33 -28 -71 -60 -84
-71 -110 -90 -376 -356 -498 -497 -48 -57 -92 -108 -98 -114 -48 -55 -177
-227 -257 -344 -168 -244 -349 -582 -457 -851 -44 -110 -127 -349 -136 -389
-2 -8 -10 -42 -19 -75 -9 -33 -19 -71 -22 -84 -3 -12 -12 -53 -20 -90 -20 -83
-19 -76 -38 -196 -10 -55 -19 -111 -21 -124 -2 -14 -7 -54 -10 -90 -3 -36 -8
-82 -11 -101 -2 -19 -6 -83 -9 -143 l-5 -107 1949 0 1950 0 -4 153 c-6 232
-16 478 -20 517 -2 19 -6 91 -10 160 -11 210 -13 234 -19 311 -9 103 -24 260
-31 322 -2 15 -7 62 -10 105 -4 42 -9 79 -10 82 -2 3 -6 34 -9 70 -4 36 -9 76
-11 90 -2 14 -7 45 -10 70 -3 25 -8 56 -10 70 -2 14 -7 45 -10 70 -3 25 -15
97 -26 160 -30 177 -26 158 -54 300 -3 14 -8 39 -11 55 -3 17 -18 87 -34 157
-16 70 -32 137 -34 150 -10 45 -15 65 -55 213 -49 176 -103 354 -136 445 -13
36 -30 85 -39 110 -16 50 -118 307 -141 356 -8 16 -28 60 -44 97 -17 37 -31
66 -33 66 -2 -1 -30 -12 -63 -26z"/>
<path d="M727 5474 c-2 -2 -29 -4 -60 -5 -53 -2 -58 -4 -63 -28 -4 -14 -18
-64 -31 -111 -13 -47 -26 -95 -29 -106 -2 -12 -13 -51 -23 -85 -17 -58 -79
-292 -86 -329 -2 -8 -15 -64 -29 -125 -38 -159 -74 -316 -80 -345 -4 -26 -65
-321 -72 -355 -3 -11 -7 -38 -10 -60 -3 -22 -12 -74 -20 -115 -8 -41 -17 -95
-20 -120 -3 -25 -10 -61 -14 -80 -5 -19 -12 -55 -15 -80 -3 -25 -8 -56 -10
-70 -2 -14 -7 -50 -10 -80 -4 -30 -9 -64 -11 -74 -2 -11 -8 -56 -14 -100 -6
-45 -13 -97 -16 -117 -9 -69 -14 -109 -19 -162 -3 -28 -7 -68 -10 -87 -2 -19
-7 -66 -11 -105 -3 -38 -7 -81 -9 -95 -14 -135 -19 -197 -30 -375 -4 -66 -9
-142 -11 -170 -5 -57 -12 -255 -18 -492 l-5 -163 1980 0 1981 0 -6 45 c-4 25
-8 50 -11 57 -2 7 -7 31 -10 53 -32 221 -167 693 -300 1045 -416 1104 -1060
2020 -1740 2477 -286 192 -601 316 -885 348 -61 7 -278 14 -283 9z"/>
</g>
</svg>
